<?xml version="1.0" encoding="utf-8"?>
<!-- Generator: Adobe Illustrator 20.0.0, SVG Export Plug-In . SVG Version: 6.00 Build 0)  -->
<svg version="1.1" id="Layer_1" xmlns="http://www.w3.org/2000/svg" xmlns:xlink="http://www.w3.org/1999/xlink" x="0px" y="0px"
	 viewBox="0 0 103.8 111.3" style="enable-background:new 0 0 103.8 111.3;" xml:space="preserve">
<style type="text/css">
	.st0{fill:none;}
</style>
<title>bar-chart</title>
<path class="st0" d="M0,111.3V0h103.8v111.3H0z M73.1,40v50.2h3.2V43.5H86v46.7h3.2V40L73.1,40z M80.3,19c-0.2,0-0.4,0-0.6,0
	c-3.4-0.2-6.7,0.6-9.6,2.4c-2.6,1.4-5,3.1-7.2,5.1c-2.3,2.1-4.7,4.1-6.9,6.3c-3.2,3.1-6.2,6.3-9.3,9.5c-1.9,2-3.8,4-5.7,6
	c-3.1,3.1-6.2,6.2-9.4,9.1c-2.1,2-4.5,3.6-6.8,5.4c-0.1,0.1-0.2,0.1-0.3,0.2c-3.2,2.7-7.2,4.4-11.4,4.9v3.4c2.7-0.2,5.3-0.8,7.7-2
	c3.8-1.9,7.3-4.3,10.5-7.1c2-1.8,4-3.6,5.9-5.4c3.2-3.2,6.4-6.4,9.5-9.6c1.9-1.9,3.7-3.9,5.6-5.8c3.7-3.6,7.3-7.2,11.1-10.7
	c2.6-2.5,5.5-4.6,8.7-6.3c0.8-0.4,1.7-0.6,2.5-1c1.8-1,3.7-0.6,5.6-0.8l0.1,0.2l-3.4,3.7l2.2,2.5l7.6-8.1L79,12.7l-2.2,2.5L80.3,19z
	 M53.6,53.8v36.4h3.2V57.5h9.8v32.8h3.1V53.8L53.6,53.8z M13,98.9h77.8v-3.3H13V98.9z M34.1,67.8v22.4h3.2V71.2h9.7v19h3.2V67.8
	L34.1,67.8z M27.6,85.2v5h3.1v-8.6H14.7v8.6h3.2v-5L27.6,85.2z"/>
<path d="M73.1,40h16.1v50.2H86V43.5h-9.7v46.7h-3.2V40z"/>
<path d="M80.3,19l-3.5-3.9l2.2-2.5l7.7,8.2l-7.6,8.1l-2.2-2.5l3.4-3.7l-0.1-0.2c-1.9,0.1-3.8-0.3-5.6,0.8c-0.8,0.4-1.7,0.7-2.5,1
	c-3.2,1.6-6.2,3.7-8.7,6.3c-3.8,3.5-7.5,7.1-11.1,10.7c-1.9,1.9-3.7,3.9-5.6,5.8c-3.1,3.2-6.3,6.5-9.5,9.6c-1.9,1.9-3.9,3.7-5.9,5.4
	c-3.2,2.8-6.7,5.2-10.5,7.2c-2.4,1.2-5,1.8-7.7,2v-3.3c4.2-0.4,8.1-2.1,11.4-4.8c0.1-0.1,0.2-0.1,0.3-0.2c2.3-1.8,4.6-3.5,6.8-5.4
	c3.2-3,6.3-6.1,9.4-9.1c2-2,3.8-4,5.7-6c3.1-3.2,6.1-6.4,9.3-9.5c2.2-2.2,4.6-4.2,6.9-6.3c2.2-2,4.6-3.7,7.2-5.1
	c2.9-1.7,6.3-2.5,9.6-2.4C79.9,19,80.1,19,80.3,19z"/>
<path d="M53.6,53.8h16.1v36.4h-3.1V57.5h-9.8v32.7h-3.2L53.6,53.8z"/>
<path d="M13,98.9v-3.3h77.8v3.3H13z"/>
<path d="M34.1,67.8h16.1v22.4h-3.2v-19h-9.7v18.9h-3.2V67.8z"/>
<path d="M27.6,85.2h-9.7v5h-3.2v-8.6h16.1v8.6h-3.1L27.6,85.2z"/>
</svg>
