<svg id="Layer_1" data-name="Layer 1" xmlns="http://www.w3.org/2000/svg" viewBox="0 0 103.81 111.34"><defs><style>.cls-1{fill:#fff;}</style></defs><title>bar-chart</title><path class="cls-1" d="M275.32,479.45V368.11H379.12V479.45Zm73.08-71.35v50.18h3.21V411.56h9.74v46.71h3.16V408.09Zm7.25-21a5.06,5.06,0,0,1-.62,0,17.15,17.15,0,0,0-9.65,2.36,35.84,35.84,0,0,0-7.21,5.1c-2.33,2.08-4.69,4.12-6.92,6.3-3.17,3.1-6.23,6.31-9.32,9.49-1.92,2-3.78,4-5.73,6-3.09,3.09-6.16,6.2-9.39,9.14-2.13,1.95-4.51,3.62-6.78,5.41-.11.08-.23.15-.33.23A20.77,20.77,0,0,1,288.35,436v3.37a20.61,20.61,0,0,0,7.67-2,49.84,49.84,0,0,0,10.46-7.12c2-1.76,4-3.56,5.93-5.44,3.21-3.16,6.35-6.39,9.49-9.61,1.88-1.92,3.66-3.94,5.58-5.82,3.67-3.6,7.34-7.21,11.13-10.69a34.55,34.55,0,0,1,8.73-6.25c.82-.38,1.73-.6,2.52-1,1.81-1,3.73-.65,5.62-.75l.1.24-3.36,3.66,2.21,2.53,7.56-8.09-7.67-8.21-2.21,2.51Zm-26.72,34.77V458.3h3.18V425.56h9.77v32.75H345V421.88ZM288.34,467H366.1v-3.33H288.34Zm21.11-31.13v22.4h3.21V439.35h9.74v19h3.16V435.88Zm-6.53,17.45v5h3.15v-8.61H290v8.59h3.22v-5Z" transform="translate(-275.32 -368.11)"/><path d="M348.39,408.09h16.11v50.18h-3.16V411.56h-9.74v46.71h-3.21Z" transform="translate(-275.32 -368.11)"/><path d="M355.64,387.11l-3.53-3.88,2.21-2.51,7.67,8.21L354.42,397l-2.21-2.53,3.36-3.66-.1-.24c-1.89.1-3.8-.27-5.62.75-.79.44-1.7.66-2.52,1a34.55,34.55,0,0,0-8.73,6.25c-3.78,3.48-7.46,7.08-11.13,10.69-1.92,1.88-3.7,3.9-5.58,5.82-3.15,3.22-6.28,6.45-9.49,9.61-1.91,1.88-3.9,3.69-5.93,5.44A49.84,49.84,0,0,1,296,437.3a20.61,20.61,0,0,1-7.67,2V436a20.77,20.77,0,0,0,11.35-4.81c.11-.08.23-.15.33-.23,2.27-1.79,4.65-3.47,6.78-5.41,3.22-2.95,6.3-6.06,9.39-9.14,1.95-1.95,3.81-4,5.73-6,3.09-3.18,6.15-6.39,9.32-9.49,2.23-2.18,4.59-4.23,6.92-6.3a35.84,35.84,0,0,1,7.21-5.1,17.15,17.15,0,0,1,9.65-2.36A5.06,5.06,0,0,0,355.64,387.11Z" transform="translate(-275.32 -368.11)"/><path d="M328.93,421.88H345v36.42h-3.15V425.56h-9.77V458.3h-3.18Z" transform="translate(-275.32 -368.11)"/><path d="M288.34,467v-3.33H366.1V467Z" transform="translate(-275.32 -368.11)"/><path d="M309.45,435.88h16.11v22.43H322.4v-19h-9.74v18.92h-3.21Z" transform="translate(-275.32 -368.11)"/><path d="M302.92,453.32H293.2v5H290v-8.59h16.09v8.61h-3.15Z" transform="translate(-275.32 -368.11)"/></svg>