<svg id="Layer_1" data-name="Layer 1" xmlns="http://www.w3.org/2000/svg" viewBox="0 0 364 363.97"><defs><style>.cls-1{fill:#fff;}</style></defs><title>44</title><path d="M489,304V524c-2,.1-4,.28-6,.28-48.44,0-96.87,0-145.31.13a21.55,21.55,0,0,0-9.71,2.83c-12.58,6.84-24.93,6.7-37.58.17a24.57,24.57,0,0,0-10.66-3c-47.77-.2-95.54-.12-143.31-.14-3.82,0-7.64-.18-11.46-.28V305a23.13,23.13,0,0,1,14.45-9c3.29-.62,4.25-2.48,4-5.69-.32-3.81,0-7.66-.31-11.48s1.14-5.6,4.85-6.8a198.49,198.49,0,0,1,44.76-9.37c24.66-2.11,48.77-.14,72.23,8.24,14.6,5.21,27.48,13.34,39.71,22.65,2.1,1.6,3.93,3.17,6.92.72,22.64-18.57,48.69-28.82,77.82-31.56a196.51,196.51,0,0,1,80.65,9.44c3.06,1,4.12,2.75,4,5.89a129.12,129.12,0,0,0,.08,15,6.78,6.78,0,0,0,2.86,4.49C480.83,299.94,485,301.87,489,304ZM463.71,492.72c.12-1.3.28-2.26.28-3.23q0-102.23.09-204.46c0-3.56-1.34-4.92-4.55-5.81a197.7,197.7,0,0,0-46.13-7.39c-33.32-1.14-63.94,6.58-91.08,26.61-4.42,3.26-6.4,6.85-6.37,12.51.23,37.32.12,74.65.12,112q0,2.51,0,5l-1.46.48-3.89-5.69V507C360.65,488.15,410.64,474.69,463.71,492.72Zm-310-.3c53.54-16.71,103.42-3,152.88,14.69V423.74l-5.6,4.86c0-2.7,0-4.52,0-6.34,0-37.82,0-75.64-.16-113.47,0-2.41-.67-5.81-2.31-7C286,292.29,273,283.72,257.8,279c-32.58-10.25-65.16-9-97.84-.37-4.87,1.28-6.78,3.33-6.77,8.51q.23,99.22.12,198.44C153.31,487.64,153.55,489.75,153.72,492.42Z" transform="translate(-125 -215)"/><path class="cls-1" d="M489,304c-4-2.13-8.17-4.06-12-6.49a6.78,6.78,0,0,1-2.86-4.49,129.12,129.12,0,0,1-.08-15c.13-3.14-.93-4.88-4-5.89a196.51,196.51,0,0,0-80.65-9.44c-29.13,2.74-55.18,13-77.82,31.56-3,2.45-4.82.88-6.92-.72-12.24-9.31-25.11-17.43-39.71-22.65-23.46-8.38-47.57-10.35-72.23-8.24A198.49,198.49,0,0,0,148,272c-3.71,1.21-5.1,3.07-4.85,6.8s0,7.67.31,11.48c.27,3.21-.68,5.08-4,5.69A23.13,23.13,0,0,0,125,305V215H489Q489,259.5,489,304Z" transform="translate(-125 -215)"/><path class="cls-1" d="M125,524c3.82.1,7.64.28,11.46.28,47.77,0,95.54-.05,143.31.14a24.57,24.57,0,0,1,10.66,3c12.65,6.53,25,6.66,37.58-.17a21.55,21.55,0,0,1,9.71-2.83c48.44-.18,96.87-.12,145.31-.13,2,0,4-.18,6-.28v55H125Z" transform="translate(-125 -215)"/><path class="cls-1" d="M463.71,492.72c-53.08-18-103.06-4.57-153,14.25V422.74l3.89,5.69,1.46-.48q0-2.51,0-5c0-37.33.11-74.65-.12-112,0-5.66,1.95-9.25,6.37-12.51,27.14-20,57.76-27.75,91.08-26.61a197.7,197.7,0,0,1,46.13,7.39c3.22.89,4.56,2.25,4.55,5.81q-.16,102.23-.09,204.46C464,490.46,463.83,491.42,463.71,492.72ZM443.41,457c2.94-6.88,2.82-7.15-4.79-9.2-1.28-.34-2.57-.65-3.88-.87-22.37-3.82-44.4-1.2-66.27,3.69-11.37,2.54-22.42,6-32.25,12.52,3.11,7.72,3.11,7.72,10.12,4.92l1.38-.57c20.11-8.38,40.78-14.46,62.84-13.45C421.48,454.59,432.35,456,443.41,457Zm-108-17.44c2.81,3,2.06,8.76,8.64,5.76,29.83-13.6,60.84-18.61,93.33-11.78,6.29,1.32,7.85-.41,7.2-7.54C406.85,417,370.9,422.72,335.43,439.6Zm.41-71c4.15,8.15,2.44,8.54,11.05,4.8C376,360.76,406,356,437.48,362.73c6.25,1.33,7.76-.45,7.18-7.46C406.86,346.28,370.87,352,335.84,368.61Zm0,47.35c3.27,7.77,3.64,7.78,10.87,4.91s14.56-5.65,22-7.94c22.58-7,45.47-7.26,68.59-2.92,6.83,1.28,7.79,0,7.35-7.33C407,393.78,371,399.31,335.89,416Zm109.67-106.8c-38.63-9.2-74.73-3.54-110,13.29l4.31,7.57c33.41-15.56,67.56-21.17,103.7-12.5Zm-.34,71.49c-25.5-10.63-91-2.4-109,13.48,3.58,7,3.52,6.83,10.47,3.86,29.12-12.48,59.18-17.36,90.6-10.86,2,.42,4.12.67,6.27,1,.57-1.93,1-3.34,1.4-4.77A21.3,21.3,0,0,0,445.21,380.65ZM336.12,346.08c3,8.17,3,8.26,10.48,5,29.25-12.68,59.43-17.46,91-11.09,6.32,1.27,7.31.14,7.23-7.13C407,323.87,370.93,329.49,336.12,346.08Z" transform="translate(-125 -215)"/><path class="cls-1" d="M153.72,492.42c-.17-2.67-.41-4.78-.41-6.88q0-99.22-.12-198.44c0-5.18,1.9-7.23,6.77-8.51,32.68-8.62,65.26-9.89,97.84.37,15.16,4.77,28.23,13.34,40.73,22.79,1.64,1.24,2.3,4.64,2.31,7,.16,37.82.14,75.64.16,113.47,0,1.82,0,3.64,0,6.34l5.6-4.86v83.38C257.13,489.43,207.26,475.71,153.72,492.42Zm75.12-187.26c-16.76-1.81-32.95-1.77-49.07,1.78-4.35,1-5.91,2.87-5.87,7.42.22,22.64.09,45.29.11,67.93,0,1.8.16,3.59.27,6,18.13-4.89,36.12-5.35,54.55-3.55ZM176.78,457.29c17.6-3.9,35-5,52.73-2.65s34.18,8,50.61,15.21l4-7.51c-4.41-2.24-8.35-4.67-12.59-6.33-17.67-6.92-36.21-10.14-55-10.81-11.71-.42-23.55.58-35.21,1.94C173.83,448,173.62,449.47,176.78,457.29Zm107-42c-35.17-16.64-71.25-22.26-109.6-12.94l2.16,8c2.74-.31,4.91-.39,7-.82,31.21-6.32,61.16-2,90.12,10.65C280.78,423.31,281.14,423.25,283.78,415.25ZM176.51,434c36.08-8.92,70.29-2.88,103.59,12.51l4.13-7.57c-35.31-16.88-71.47-22.51-109.8-13.3.29,1.72.44,3,.75,4.31S176,432.41,176.51,434ZM284.1,345.75a160.19,160.19,0,0,0-46.74-15.24c2,4-1.69,8,3.94,9.7,13,3.87,25.93,8.1,39.26,12.3Zm-3.48-17.31,3.46-6.65a161.89,161.89,0,0,0-46.52-15.1c1.81,3.52-2,7.69,3.37,9.38C254,320.17,267.1,324.23,280.62,328.44Zm-42,24.61c-1,8.35-.83,8.43,3.47,9.76,10.75,3.32,21.5,6.67,32.14,10.32,6.51,2.23,7.5,1.94,9.28-5.12C269.39,360.49,254.27,356,238.57,353Zm45.22,39.65a154.13,154.13,0,0,0-44.92-14.91c-1.7,8.16-1.31,8.19,5.91,10.25,9.87,2.82,19.64,6.09,29.27,9.66C280.81,400.2,281.2,400.32,283.79,392.69Z" transform="translate(-125 -215)"/><path d="M443.41,457c-11.06-1-21.93-2.46-32.83-3-22.06-1-42.72,5.07-62.84,13.45l-1.38.57c-7,2.8-7,2.8-10.12-4.92,9.83-6.5,20.88-10,32.25-12.52,21.87-4.89,43.9-7.51,66.27-3.69,1.3.22,2.6.53,3.88.87C446.24,449.89,446.36,450.16,443.41,457Z" transform="translate(-125 -215)"/><path d="M335.43,439.6C370.9,422.72,406.85,417,444.6,426c.65,7.13-.91,8.86-7.2,7.54-32.49-6.83-63.5-1.82-93.33,11.78C337.48,448.36,338.24,442.59,335.43,439.6Z" transform="translate(-125 -215)"/><path d="M335.84,368.61c35-16.6,71-22.33,108.81-13.34.59,7-.92,8.79-7.18,7.46-31.43-6.69-61.45-2-90.58,10.68C338.28,377.16,340,376.76,335.84,368.61Z" transform="translate(-125 -215)"/><path d="M335.89,416C371,399.31,407,393.78,444.7,402.68c.44,7.35-.52,8.61-7.35,7.33-23.12-4.34-46-4-68.59,2.92-7.45,2.29-14.76,5.07-22,7.94S339.15,423.73,335.89,416Z" transform="translate(-125 -215)"/><path d="M445.56,309.16l-2,8.36c-36.14-8.67-70.29-3.06-103.7,12.5l-4.31-7.57C370.82,305.62,406.92,300,445.56,309.16Z" transform="translate(-125 -215)"/><path d="M445.21,380.65a21.3,21.3,0,0,1-.29,2.71c-.35,1.44-.82,2.84-1.4,4.77-2.16-.34-4.23-.59-6.27-1-31.42-6.49-61.48-1.62-90.6,10.86-6.95,3-6.88,3.13-10.47-3.86C354.18,378.25,419.71,370,445.21,380.65Z" transform="translate(-125 -215)"/><path d="M336.12,346.08c34.81-16.59,70.86-22.21,108.72-13.2.08,7.27-.91,8.4-7.23,7.13-31.59-6.38-61.76-1.59-91,11.09C339.11,354.34,339.07,354.25,336.12,346.08Z" transform="translate(-125 -215)"/><path d="M228.84,305.16v79.6c-18.44-1.8-36.43-1.33-54.55,3.55-.11-2.43-.27-4.23-.27-6,0-22.64.11-45.29-.11-67.93,0-4.55,1.51-6.46,5.87-7.42C195.89,303.39,212.08,303.35,228.84,305.16Z" transform="translate(-125 -215)"/><path d="M176.78,457.29c-3.16-7.83-2.95-9.28,4.55-10.15,11.66-1.36,23.5-2.35,35.21-1.94,18.82.67,37.36,3.89,55,10.81,4.24,1.66,8.19,4.09,12.59,6.33l-4,7.51c-16.44-7.23-33-12.83-50.61-15.21S194.37,453.4,176.78,457.29Z" transform="translate(-125 -215)"/><path d="M283.78,415.25c-2.64,8-3,8.06-10.32,4.87-29-12.61-58.91-17-90.12-10.65-2.1.43-4.27.51-7,.82l-2.16-8C212.53,393,248.61,398.6,283.78,415.25Z" transform="translate(-125 -215)"/><path d="M176.51,434c-.52-1.57-1-2.78-1.32-4s-.46-2.59-.75-4.31c38.33-9.21,74.5-3.57,109.8,13.3l-4.13,7.57C246.79,431.09,212.59,425.05,176.51,434Z" transform="translate(-125 -215)"/><path d="M284.1,345.75l-3.53,6.76c-13.33-4.2-26.24-8.43-39.26-12.3-5.63-1.67-2-5.73-3.94-9.7A160.19,160.19,0,0,1,284.1,345.75Z" transform="translate(-125 -215)"/><path d="M280.62,328.44c-13.51-4.21-26.61-8.27-39.69-12.37-5.36-1.68-1.56-5.86-3.37-9.38a161.89,161.89,0,0,1,46.52,15.1Z" transform="translate(-125 -215)"/><path d="M238.57,353c15.7,2.94,30.81,7.45,44.89,15-1.78,7.06-2.77,7.35-9.28,5.12-10.64-3.65-21.39-7-32.14-10.32C237.74,361.47,237.58,361.4,238.57,353Z" transform="translate(-125 -215)"/><path d="M283.79,392.69c-2.59,7.62-3,7.51-9.74,5-9.63-3.57-19.4-6.84-29.27-9.66-7.22-2.06-7.61-2.09-5.91-10.25A154.13,154.13,0,0,1,283.79,392.69Z" transform="translate(-125 -215)"/></svg>