<?xml version="1.0" encoding="utf-8"?>
<!-- Generator: Adobe Illustrator 20.0.0, SVG Export Plug-In . SVG Version: 6.00 Build 0)  -->
<svg version="1.1" id="Layer_1" xmlns="http://www.w3.org/2000/svg" xmlns:xlink="http://www.w3.org/1999/xlink" x="0px" y="0px"
	 viewBox="0 0 364 364" style="enable-background:new 0 0 364 364;" xml:space="preserve">
<title>44</title>
<path d="M364,89v220c-2,0.1-4,0.3-6,0.3c-48.4,0-96.9,0-145.3,0.1c-3.4,0.2-6.7,1.1-9.7,2.8c-12.6,6.8-24.9,6.7-37.6,0.2
	c-3.3-1.8-6.9-2.8-10.7-3c-47.8-0.2-95.5-0.1-143.3-0.1c-3.8,0-7.6-0.2-11.5-0.3V90c3.5-4.7,8.7-7.9,14.5-9c3.3-0.6,4.3-2.5,4-5.7
	c-0.3-3.8,0-7.7-0.3-11.5s1.1-5.6,4.9-6.8c14.5-4.8,29.5-8,44.8-9.4c24.7-2.1,48.8-0.1,72.2,8.2c14.6,5.2,27.5,13.3,39.7,22.6
	c2.1,1.6,3.9,3.2,6.9,0.7c22.6-18.6,48.7-28.8,77.8-31.6c27.2-2.5,54.7,0.7,80.6,9.4c3.1,1,4.1,2.8,4,5.9c-0.3,5-0.2,10,0.1,15
	c0.3,1.8,1.3,3.4,2.9,4.5C355.8,84.9,360,86.9,364,89z M338.7,277.7c0.1-1.3,0.3-2.3,0.3-3.2c0-68.2,0-136.3,0.1-204.5
	c0-3.6-1.3-4.9-4.5-5.8c-15-4.3-30.5-6.8-46.1-7.4c-33.3-1.1-63.9,6.6-91.1,26.6c-4.4,3.3-6.4,6.9-6.4,12.5
	c0.2,37.3,0.1,74.6,0.1,112c0,1.7,0,3.3,0,5l-1.5,0.5l-3.9-5.7V292C235.6,273.1,285.6,259.7,338.7,277.7z M28.7,277.4
	c53.5-16.7,103.4-3,152.9,14.7v-83.4l-5.6,4.9c0-2.7,0-4.5,0-6.3c0-37.8,0-75.6-0.2-113.5c0-2.4-0.7-5.8-2.3-7
	C161,77.3,148,68.7,132.8,64c-32.6-10.3-65.2-9-97.8-0.4c-4.9,1.3-6.8,3.3-6.8,8.5c0.2,66.1,0.2,132.3,0.1,198.4
	C28.3,272.6,28.6,274.8,28.7,277.4L28.7,277.4z"/>
<path d="M318.4,242c-11.1-1-21.9-2.5-32.8-3c-22.1-1-42.7,5.1-62.8,13.5l-1.4,0.6c-7,2.8-7,2.8-10.1-4.9c9.8-6.5,20.9-10,32.3-12.5
	c21.9-4.9,43.9-7.5,66.3-3.7c1.3,0.2,2.6,0.5,3.9,0.9C321.2,234.9,321.4,235.2,318.4,242z"/>
<path d="M210.4,224.6c35.5-16.9,71.4-22.6,109.2-13.6c0.6,7.1-0.9,8.9-7.2,7.5c-32.5-6.8-63.5-1.8-93.3,11.8
	C212.5,233.4,213.2,227.6,210.4,224.6z"/>
<path d="M210.8,153.6c35-16.6,71-22.3,108.8-13.3c0.6,7-0.9,8.8-7.2,7.5c-31.4-6.7-61.5-2-90.6,10.7
	C213.3,162.2,215,161.8,210.8,153.6z"/>
<path d="M210.9,201c35.1-16.7,71.1-22.2,108.8-13.3c0.4,7.4-0.5,8.6-7.4,7.3c-23.1-4.3-46-4-68.6,2.9c-7.5,2.3-14.8,5.1-22,7.9
	S214.1,208.7,210.9,201z"/>
<path d="M320.6,94.2l-2,8.4c-36.1-8.7-70.3-3.1-103.7,12.5l-4.3-7.6C245.8,90.6,281.9,85,320.6,94.2z"/>
<path d="M320.2,165.6c0,0.9-0.1,1.8-0.3,2.7c-0.4,1.4-0.8,2.8-1.4,4.8c-2.2-0.3-4.2-0.6-6.3-1c-31.4-6.5-61.5-1.6-90.6,10.9
	c-7,3-6.9,3.1-10.5-3.9C229.2,163.3,294.7,155,320.2,165.6z"/>
<path d="M211.1,131.1c34.8-16.6,70.9-22.2,108.7-13.2c0.1,7.3-0.9,8.4-7.2,7.1c-31.6-6.4-61.8-1.6-91,11.1
	C214.1,139.3,214.1,139.3,211.1,131.1z"/>
<path d="M103.8,90.2v79.6c-18.4-1.8-36.4-1.3-54.6,3.5c-0.1-2.4-0.3-4.2-0.3-6c0-22.6,0.1-45.3-0.1-67.9c0-4.5,1.5-6.5,5.9-7.4
	C70.9,88.4,87.1,88.4,103.8,90.2z"/>
<path d="M51.8,242.3c-3.2-7.8-2.9-9.3,4.6-10.1c11.7-1.4,23.5-2.4,35.2-1.9c18.8,0.7,37.4,3.9,55,10.8c4.2,1.7,8.2,4.1,12.6,6.3
	l-4,7.5c-16.4-7.2-33-12.8-50.6-15.2S69.4,238.4,51.8,242.3z"/>
<path d="M158.8,200.3c-2.6,8-3,8.1-10.3,4.9c-29-12.6-58.9-17-90.1-10.6c-2.1,0.4-4.3,0.5-7,0.8l-2.2-8
	C87.5,178,123.6,183.6,158.8,200.3z"/>
<path d="M51.5,219c-0.5-1.6-1-2.8-1.3-4s-0.5-2.6-0.8-4.3c38.3-9.2,74.5-3.6,109.8,13.3l-4.1,7.6C121.8,216.1,87.6,210,51.5,219z"/>
<path d="M159.1,130.8l-3.5,6.8c-13.3-4.2-26.2-8.4-39.3-12.3c-5.6-1.7-2-5.7-3.9-9.7C128.6,118.2,144.4,123.3,159.1,130.8z"/>
<path d="M155.6,113.4c-13.5-4.2-26.6-8.3-39.7-12.4c-5.4-1.7-1.6-5.9-3.4-9.4c16.2,2.6,31.9,7.7,46.5,15.1L155.6,113.4z"/>
<path d="M113.6,138c15.7,2.9,30.8,7.5,44.9,15c-1.8,7.1-2.8,7.4-9.3,5.1c-10.6-3.6-21.4-7-32.1-10.3
	C112.7,146.5,112.6,146.4,113.6,138z"/>
<path d="M158.8,177.7c-2.6,7.6-3,7.5-9.7,5c-9.6-3.6-19.4-6.8-29.3-9.7c-7.2-2.1-7.6-2.1-5.9-10.3
	C129.5,165.4,144.7,170.4,158.8,177.7z"/>
</svg>
