<svg id="Layer_1" data-name="Layer 1" xmlns="http://www.w3.org/2000/svg" viewBox="0 0 199.85 200"><defs><style>.cls-1{fill:#fff;}</style></defs><title>11</title><path class="cls-1" d="M358,479H213.09V279H265c-5.2,4.69-2,11.3-3.64,17.07h-21.6c-14.8,0-22.18,7.29-22.19,22q0,60,0,120c0,15,7.14,22.16,22,22.18q37.24,0,74.49,0c1.59,0,3.19-.15,4.89-.23-.87-5.67-3.08-8.12-9.17-8-23.32.43-46.65.18-70,.17-10.56,0-14.07-3.51-14.08-14.08q0-46.49,0-93c0-1.76.16-3.52.25-5.29H383.86c0,13.92,0,27.41,0,40.9,0,7.72.17,7.93,8,9.79,0-25.36.25-50.68-.12-76-.16-10.89-8.66-18.33-19.69-18.47-9-.11-18,0-27.57,0,0-3.33.45-6.38-.13-9.21s-2.18-5.25-3.34-7.86h71.94q0,100,0,200H371c1.25-.38,2.48-.83,3.75-1.14,21.89-5.32,35.71-25.46,33.28-48.5-2.21-20.89-21.09-37.69-42.81-38.09s-40.6,15.73-44,37.4c-3.36,21.42,10,42.26,31.17,48.53C354.27,477.76,356.13,478.4,358,479Zm-65.69-98.66h23.45V356.92H292.42c0,8,0,15.77,0,23.51l-24.74-.08V357H244.18V380.2c8.13,0,15.89,0,23.67,0v22.38h24.46Z" transform="translate(-213.09 -279)"/><path d="M341,279c1.16,2.61,2.78,5.13,3.34,7.86s.13,5.89.13,9.21c9.61,0,18.59-.09,27.57,0,11,.14,19.53,7.58,19.69,18.47.37,25.3.12,50.62.12,76-7.82-1.86-8-2.07-8-9.79,0-13.49,0-27,0-40.9H225.92c-.09,1.77-.25,3.53-.25,5.29q0,46.49,0,93c0,10.56,3.52,14.07,14.08,14.08,23.33,0,46.66.26,70-.17,6.09-.11,8.3,2.34,9.17,8-1.7.08-3.29.23-4.89.23q-37.24,0-74.49,0c-14.82,0-22-7.21-22-22.18q0-60,0-120c0-14.76,7.39-22,22.19-22h21.6C263,290.3,259.8,283.69,265,279h5c6.79,4.12,2.54,11.31,4.49,16.8h57.83c0-3.2-.48-6.25.14-9.07s2.32-5.17,3.54-7.73ZM225.89,330.85h158c0-4.61,0-8.75,0-12.89a28.6,28.6,0,0,0-.06-3c-.61-5.75-4.23-10.36-9.54-10.59-9.74-.42-19.51-.12-29.8-.12,0,3.76,0,7.06,0,10.35,0,4.12-1.19,7.34-6,7.54-3.86.16-6-2.48-6.14-7.43-.09-3.42,0-6.84,0-10.28H274c0,3.79,0,7.26,0,10.73,0,4.05-1.66,6.93-6.05,6.93s-6-2.81-6-6.92c0-3.59,0-7.17,0-11-9.08,0-17.39-.21-25.68.07-5.53.19-9.87,4-10.25,9.14C225.56,319.12,225.89,324.92,225.89,330.85Z" transform="translate(-213.09 -279)"/><path d="M358,479c-1.87-.6-3.73-1.24-5.61-1.8-21.13-6.27-34.52-27.11-31.17-48.53,3.39-21.67,22.37-37.81,44-37.4s40.61,17.21,42.81,38.09c2.43,23-11.39,43.18-33.28,48.5-1.27.31-2.5.76-3.75,1.14Zm43.3-43.94A36.69,36.69,0,1,0,364.59,472,36.74,36.74,0,0,0,401.3,435.06Z" transform="translate(-213.09 -279)"/><path class="cls-1" d="M336,279c-1.23,2.57-3,5-3.54,7.73s-.14,5.87-.14,9.07H274.49c-1.95-5.5,2.3-12.68-4.49-16.8Z" transform="translate(-213.09 -279)"/><path d="M267.84,380.2H244.18V357h23.49v23.36Z" transform="translate(-213.09 -279)"/><path d="M292.42,380.44V356.92h23.33v23.42H292.3Z" transform="translate(-213.09 -279)"/><path d="M267.67,380.35l24.75.09-.12-.1c0,7.28,0,14.56,0,22.23H267.85c0-7.32,0-14.85,0-22.37Z" transform="translate(-213.09 -279)"/><path class="cls-1" d="M225.89,330.85c0-5.93-.33-11.73.1-17.48.38-5.12,4.73-9,10.25-9.14,8.29-.28,16.6-.07,25.68-.07,0,3.85,0,7.44,0,11,0,4.11,1.62,6.92,6,6.92s6-2.88,6.05-6.93c0-3.47,0-6.94,0-10.73h58.35c0,3.45-.07,6.87,0,10.28.13,4.95,2.28,7.59,6.14,7.43,4.79-.2,6-3.42,6-7.54,0-3.3,0-6.59,0-10.35,10.29,0,20.06-.3,29.8.12,5.3.23,8.92,4.84,9.54,10.59a28.6,28.6,0,0,1,.06,3c0,4.14,0,8.28,0,12.89Z" transform="translate(-213.09 -279)"/><path class="cls-1" d="M401.3,435.06a36.69,36.69,0,1,1-36.9-36.71A36.76,36.76,0,0,1,401.3,435.06Zm-36.74,8.34c2.78-3.41,5.74-5.41,5.71-7.36-.06-3.8,2-5.69,4.18-7.87,2.49-2.46,5.09-4.82,7.36-7.48,1-1.19,1.34-3,2-4.51-1.63.63-3.59.88-4.84,2-3,2.6-5.71,5.6-8.55,8.41-4,4-7.47,4-11.43.11-4.85-4.82-9.61-9.72-14.56-14.43-.87-.82-2.49-.85-3.77-1.25.36,1.39.28,3.17,1.14,4.09,4.56,4.86,9.5,9.37,14,14.29,1.48,1.63,1.82,4.25,3,6.22C360.17,437.84,361.92,439.87,364.57,443.41Z" transform="translate(-213.09 -279)"/><path d="M364.57,443.41c-2.65-3.54-4.4-5.57-5.77-7.82-1.2-2-1.53-4.59-3-6.22-4.48-4.92-9.42-9.43-14-14.29-.86-.91-.78-2.7-1.14-4.09,1.28.4,2.9.42,3.77,1.25,5,4.71,9.71,9.61,14.56,14.43,4,3.93,7.39,3.89,11.43-.11,2.84-2.82,5.52-5.81,8.55-8.41,1.25-1.07,3.2-1.32,4.84-2-.64,1.52-1,3.31-2,4.51-2.27,2.65-4.87,5-7.36,7.48-2.21,2.18-4.24,4.07-4.18,7.87C370.31,438,367.35,440,364.57,443.41Z" transform="translate(-213.09 -279)"/></svg>