<?xml version="1.0" encoding="utf-8"?>
<!-- Generator: Adobe Illustrator 20.0.0, SVG Export Plug-In . SVG Version: 6.00 Build 0)  -->
<svg version="1.1" id="Layer_1" xmlns="http://www.w3.org/2000/svg" xmlns:xlink="http://www.w3.org/1999/xlink" x="0px" y="0px"
	 viewBox="0 0 199.9 200" style="enable-background:new 0 0 199.9 200;" xml:space="preserve">
<title>11</title>
<path d="M127.9,0c1.2,2.6,2.8,5.1,3.3,7.9s0.1,5.9,0.1,9.2c9.6,0,18.6-0.1,27.6,0c11,0.1,19.5,7.6,19.7,18.5
	c0.4,25.3,0.1,50.6,0.1,76c-7.8-1.9-8-2.1-8-9.8c0-13.5,0-27,0-40.9H12.8c-0.1,1.8-0.3,3.5-0.3,5.3c0,31,0,62,0,93
	c0,10.6,3.5,14.1,14.1,14.1c23.3,0,46.7,0.3,70-0.2c6.1-0.1,8.3,2.3,9.2,8c-1.7,0.1-3.3,0.2-4.9,0.2c-24.8,0-49.7,0-74.5,0
	c-14.8,0-22-7.2-22-22.2c0-40,0-80,0-120c0-14.8,7.4-22,22.2-22h21.6c1.7-5.8-1.5-12.4,3.7-17.1h5c6.8,4.1,2.5,11.3,4.5,16.8h57.8
	c0-3.2-0.5-6.3,0.1-9.1s2.3-5.2,3.5-7.7L127.9,0z M12.8,51.9h158c0-4.6,0-8.8,0-12.9c0-1,0-2-0.1-3c-0.6-5.8-4.2-10.4-9.5-10.6
	c-9.7-0.4-19.5-0.1-29.8-0.1c0,3.8,0,7.1,0,10.4c0,4.1-1.2,7.3-6,7.5c-3.9,0.2-6-2.5-6.1-7.4c-0.1-3.4,0-6.8,0-10.3H60.9
	c0,3.8,0,7.3,0,10.7c0,4-1.7,6.9-6,6.9s-6-2.8-6-6.9c0-3.6,0-7.2,0-11c-9.1,0-17.4-0.2-25.7,0.1c-5.5,0.2-9.9,4-10.3,9.1
	C12.5,40.1,12.8,45.9,12.8,51.9z"/>
<path d="M144.9,200c-1.9-0.6-3.7-1.2-5.6-1.8c-21.1-6.3-34.5-27.1-31.2-48.5c3.4-21.7,22.4-37.8,44-37.4s40.6,17.2,42.8,38.1
	c2.4,23-11.4,43.2-33.3,48.5c-1.3,0.3-2.5,0.8-3.8,1.1H144.9z M188.2,156.1c-0.1-20.3-16.7-36.6-36.9-36.4
	c-20.3,0.1-36.6,16.7-36.4,36.9c0.1,20.2,16.5,36.4,36.7,36.4C171.9,193,188.3,176.5,188.2,156.1
	C188.2,156.2,188.2,156.1,188.2,156.1z"/>
<path d="M54.8,101.2H31.1V78h23.5v23.4L54.8,101.2z"/>
<path d="M79.3,101.4V77.9h23.3v23.4H79.2L79.3,101.4z"/>
<path d="M54.6,101.4l24.8,0.1l-0.1-0.1c0,7.3,0,14.6,0,22.2H54.8c0-7.3,0-14.9,0-22.4L54.6,101.4z"/>
<path d="M151.5,164.4c-2.6-3.5-4.4-5.6-5.8-7.8c-1.2-2-1.5-4.6-3-6.2c-4.5-4.9-9.4-9.4-14-14.3c-0.9-0.9-0.8-2.7-1.1-4.1
	c1.3,0.4,2.9,0.4,3.8,1.3c5,4.7,9.7,9.6,14.6,14.4c4,3.9,7.4,3.9,11.4-0.1c2.8-2.8,5.5-5.8,8.5-8.4c1.3-1.1,3.2-1.3,4.8-2
	c-0.6,1.5-1,3.3-2,4.5c-2.3,2.6-4.9,5-7.4,7.5c-2.2,2.2-4.2,4.1-4.2,7.9C157.2,159,154.3,161,151.5,164.4z"/>
</svg>
