<svg id="Layer_1" data-name="Layer 1" xmlns="http://www.w3.org/2000/svg" viewBox="0 0 150.96 151"><defs><style>.cls-1{fill:#fff;}</style></defs><title>33 (2)</title><path class="cls-1" d="M307.16,472.09h-89v-151H275.3l-3.34,1.1a19.23,19.23,0,0,0-11.89,25.22c3.72,10,15.61,15,25.56,10.75A19.42,19.42,0,0,0,295.39,332c-3-6-8.06-9.09-14.19-10.91h87.89v151H324.85c-.07-1.17-.19-2.34-.19-3.51q0-23.55,0-47.1c0-1.14,0-2.28,0-3.61-9.27,0-18.09,0-26.92,0a2.42,2.42,0,0,0-1.81,1.06c-2,4-3.9,8.05-6,12.53h17.27Zm0-77.06L308,395l.52,5.75h39.41l3.61-38.22-28.73,5.07c-5.86,1-5.79,1-6.26,6.94-.42,5.35-1,10.69-1.57,16.57-1.48-1.26-2.53-2.12-3.55-3-5.27-4.57-11-8.73-15.7-13.82-6.46-7-13.88-9.91-23.24-8.53-2.84.42-5.79.06-8.79.06l-3.25,65.64c4.76,0,9.07-.08,13.38,0a3.06,3.06,0,0,0,3.33-2.08c3.24-7,6.47-14.1,10-21,2.6-5.07,4.39-10.22,4.24-16a70.69,70.69,0,0,1,.66-7.74l13,8.5-.31.61-10.91-.51a21.49,21.49,0,0,0,0,3.6c.14.81.64,2.12,1.16,2.21,3.91.7,7.86,1.16,12.16,1.74Zm-71.5-12.37c.18.88.26,1.36.38,1.82,4.63,18.57,9.22,37.14,13.94,55.69,1.25,4.91-.12,4.16,5.52,4.23,1,0,1.91,0,3.3,0l-9.94,22.1,6,2.73c3.51-7.71,7-15.18,10.29-22.71a3,3,0,0,1,3.27-2.15,76.7,76.7,0,0,0,10.31,0c3.08-.29,4.43.89,5.55,3.67,2.85,7.07,6.07,14,9.23,21.17l6-2.66-9.64-22.24h6.9v-9.85H285c.41-1.06.64-1.8,1-2.48,3.15-6.65,6.38-13.27,9.44-20a3.5,3.5,0,0,1,3.77-2.38c15.24.09,30.47.05,45.71.05h3.31v-5.57a11.92,11.92,0,0,0-1.55-.22c-17.3,0-34.6,0-51.9.08a4.2,4.2,0,0,0-2.84,2.2c-4.25,8.63-8.3,17.35-12.51,26-.44.91-1.48,2.13-2.28,2.16-6.07.18-12.14.1-18.29.1l-13.55-54.1Z" transform="translate(-218.13 -321.09)"/><path d="M281.2,321.09c6.13,1.82,11.24,4.89,14.19,10.91a19.42,19.42,0,0,1-9.76,26.15c-10,4.22-21.84-.78-25.56-10.75A19.23,19.23,0,0,1,272,322.19l3.34-1.1Z" transform="translate(-218.13 -321.09)"/><path d="M307.16,472.09V431.5H289.89c2.14-4.48,4-8.54,6-12.53a2.42,2.42,0,0,1,1.81-1.06c8.82-.07,17.65,0,26.92,0,0,1.32,0,2.47,0,3.61q0,23.55,0,47.1c0,1.17.12,2.34.19,3.51Z" transform="translate(-218.13 -321.09)"/><path d="M307.19,395v5.77c-4.3-.58-8.25-1-12.16-1.74-.52-.09-1-1.4-1.16-2.21a21.49,21.49,0,0,1,0-3.6l10.91.51.31-.61-13-8.5a70.69,70.69,0,0,0-.66,7.74c.15,5.78-1.65,10.93-4.24,16-3.53,6.9-6.77,14-10,21a3.06,3.06,0,0,1-3.33,2.08c-4.31-.11-8.62,0-13.38,0l3.25-65.64c3,0,6,.35,8.79-.06,9.37-1.38,16.78,1.54,23.24,8.53,4.71,5.09,10.43,9.25,15.7,13.82,1,.89,2.07,1.75,3.55,3,.57-5.88,1.15-11.22,1.57-16.57.47-5.91.4-5.91,6.26-6.94l28.73-5.07-3.61,38.22H308.52L308,395Zm38.21-.95,2.21-27.31c-9.47,1.67-18.44,3.23-27.38,4.9a2.41,2.41,0,0,0-1.51,1.67c-.62,6-1.09,12.11-1.62,18.16-.16,1.79.77,2.57,2.41,2.57C328,394.1,336.55,394.09,345.4,394.09Zm-2,2.74H332.75C334.33,398.67,341.28,398.76,343.42,396.83Z" transform="translate(-218.13 -321.09)"/><path d="M235.69,382.67l9.6-2.37,13.55,54.1c6.15,0,12.22.08,18.29-.1.79,0,1.84-1.25,2.28-2.16,4.21-8.65,8.26-17.37,12.51-26a4.2,4.2,0,0,1,2.84-2.2c17.3-.13,34.6-.09,51.9-.08a11.92,11.92,0,0,1,1.55.22v5.57H344.9c-15.24,0-30.47,0-45.71-.05a3.5,3.5,0,0,0-3.77,2.38c-3.06,6.69-6.29,13.31-9.44,20-.32.69-.55,1.42-1,2.48h11.83v9.85h-6.9l9.64,22.24-6,2.66c-3.16-7.18-6.38-14.1-9.23-21.17-1.12-2.77-2.47-4-5.55-3.67a76.7,76.7,0,0,1-10.31,0,3,3,0,0,0-3.27,2.15c-3.33,7.53-6.78,15-10.29,22.71l-6-2.73,9.94-22.1c-1.39,0-2.35,0-3.3,0-5.64-.07-4.27.68-5.52-4.23-4.72-18.54-9.31-37.12-13.94-55.69C236,384,235.88,383.55,235.69,382.67Z" transform="translate(-218.13 -321.09)"/><path class="cls-1" d="M345.4,394.09c-8.86,0-17.37,0-25.89,0-1.64,0-2.56-.78-2.41-2.57.53-6.06,1-12.12,1.62-18.16a2.41,2.41,0,0,1,1.51-1.67c8.94-1.67,17.91-3.23,27.38-4.9Z" transform="translate(-218.13 -321.09)"/><path class="cls-1" d="M343.42,396.83c-2.14,1.92-9.09,1.84-10.67,0Z" transform="translate(-218.13 -321.09)"/></svg>