<?xml version="1.0" encoding="utf-8"?>
<!-- Generator: Adobe Illustrator 20.0.0, SVG Export Plug-In . SVG Version: 6.00 Build 0)  -->
<svg version="1.1" id="Layer_1" xmlns="http://www.w3.org/2000/svg" xmlns:xlink="http://www.w3.org/1999/xlink" x="0px" y="0px"
	 viewBox="0 0 151 151" style="enable-background:new 0 0 151 151;" xml:space="preserve">
<title>33 (2)</title>
<path d="M63.1,0c6.1,1.8,11.2,4.9,14.2,10.9c4.6,9.7,0.5,21.3-9.2,25.9c-0.2,0.1-0.4,0.2-0.6,0.3c-10,4.2-21.8-0.8-25.6-10.8
	c-3.8-9.9,1.1-21,11-24.9c0.3-0.1,0.6-0.2,0.9-0.3L57.2,0H63.1z"/>
<path d="M89,151v-40.6H71.8c2.1-4.5,4-8.5,6-12.5c0.4-0.6,1.1-1,1.8-1.1c8.8-0.1,17.6,0,26.9,0c0,1.3,0,2.5,0,3.6
	c0,15.7,0,31.4,0,47.1c0,1.2,0.1,2.3,0.2,3.5L89,151z"/>
<path d="M89.1,73.9v5.8c-4.3-0.6-8.3-1-12.2-1.7c-0.5-0.1-1-1.4-1.2-2.2c-0.1-1.2-0.1-2.4,0-3.6l10.9,0.5L87,72l-13-8.5
	c-0.4,2.6-0.6,5.1-0.7,7.7c0.1,5.8-1.6,10.9-4.2,16c-3.5,6.9-6.8,14-10,21c-0.5,1.4-1.9,2.3-3.3,2.1c-4.3-0.1-8.6,0-13.4,0l3.3-65.6
	c3,0,6,0.4,8.8-0.1c9.4-1.4,16.8,1.5,23.2,8.5c4.7,5.1,10.4,9.3,15.7,13.8c1,0.9,2.1,1.8,3.5,3c0.6-5.9,1.1-11.2,1.6-16.6
	c0.5-5.9,0.4-5.9,6.3-6.9l28.7-5.1l-3.6,38.2H90.4l-0.5-5.7H89.1z M127.3,73l2.2-27.3c-9.5,1.7-18.4,3.2-27.4,4.9
	c-0.7,0.3-1.3,0.9-1.5,1.7c-0.6,6-1.1,12.1-1.6,18.2c-0.2,1.8,0.8,2.6,2.4,2.6C109.9,73,118.4,73,127.3,73L127.3,73z M125.3,75.7
	h-10.6C116.2,77.6,123.1,77.7,125.3,75.7L125.3,75.7z"/>
<path d="M17.6,61.6l9.6-2.4l13.5,54.1c6.1,0,12.2,0.1,18.3-0.1c0.8,0,1.8-1.3,2.3-2.2c4.2-8.6,8.3-17.4,12.5-26
	c0.6-1.1,1.6-1.9,2.8-2.2c17.3-0.1,34.6-0.1,51.9-0.1c0.5,0,1,0.1,1.5,0.2v5.6h-3.3c-15.2,0-30.5,0-45.7,0c-1.7-0.2-3.2,0.8-3.8,2.4
	c-3.1,6.7-6.3,13.3-9.4,20c-0.3,0.7-0.5,1.4-1,2.5h11.8v9.9h-6.9l9.6,22.2l-6,2.7c-3.2-7.2-6.4-14.1-9.2-21.2
	c-1.1-2.8-2.5-4-5.5-3.7c-3.4,0.2-6.9,0.2-10.3,0c-1.5-0.2-2.9,0.7-3.3,2.1c-3.3,7.5-6.8,15-10.3,22.7l-6-2.7l9.9-22.1
	c-1.4,0-2.4,0-3.3,0c-5.6-0.1-4.3,0.7-5.5-4.2C27.2,100.5,22.6,82,18,63.4C17.9,62.9,17.8,62.5,17.6,61.6z"/>
</svg>
