<?xml version="1.0" encoding="utf-8"?>
<!-- Generator: Adobe Illustrator 20.0.0, SVG Export Plug-In . SVG Version: 6.00 Build 0)  -->
<svg version="1.1" id="Layer_1" xmlns="http://www.w3.org/2000/svg" xmlns:xlink="http://www.w3.org/1999/xlink" x="0px" y="0px"
	 viewBox="0 0 150.7 173.2" style="enable-background:new 0 0 150.7 173.2;" xml:space="preserve">
<style type="text/css">
	.st0{fill:#464444;}
	.st1{fill:#6AB0E7;}
</style>
<title>document</title>
<path class="st0" d="M115.7,123.9c4.2,0.5,8.4,0.2,12.6,0.2c2.5,0,3.6,1,3.3,3.5c-0.4,3.4,0,5.7,4.2,7c4.9,1.5,7.3,5.9,7.5,11.1
	c0.1,2.8,0.1,5.7,0,8.5c0.1,3.9-3,7.2-6.9,7.3c-0.1,0-0.2,0-0.3,0c-15.2,0.1-30.4,0-45.6,0c-2.5,0.1-4.8-1.2-6-3.3
	c-0.5-1-1.6-1.6-2.7-1.5c-9.7,0-19.4,0.1-29,0c-2,0-2.3,0.7-2.2,2.4c0.1,3.6,0.1,7.3,0,10.9c-0.1,3.1-1.6,3.9-4.3,2.2
	s-5.3-3.4-7.9-5.3c-0.9-0.8-2.3-0.8-3.2,0c-2.6,1.8-5.2,3.6-7.9,5.3s-4.2,0.8-4.3-2.3c-0.1-3.8-0.1-7.6,0-11.5
	c0-1.4-0.4-1.9-1.8-1.8c-3.9,0.1-7.7,0-11.6,0c-6.1,0-9.7-3.5-9.7-9.7c-0.1-8.5,0-17.1,0-25.6c0-32.9,0-65.8,0-98.7
	C0,14.9,3.1,11.7,11,11.7c21.9,0,43.8,0,65.7,0c3.3-0.1,6.4,1.2,8.7,3.6c8.9,9.1,17.8,18.2,26.9,27.1c2.3,2.2,3.6,5.3,3.5,8.5
	c-0.1,9,0,18,0,26.9L111,89c0-12.4-0.1-24.9,0-37.3c0-2.2-0.6-2.6-2.6-2.6c-5.4,0.1-10.7,0.1-16.1,0c-7.6-0.2-13.7-6.4-13.7-14
	c0-5.3-0.1-10.7,0-16c0.1-2.3-0.7-2.7-2.8-2.7c-21.6,0.1-43.3,0-64.9,0c-5.4,0-6.5,1.1-6.5,6.5c0,40.8,0,81.6,0,122.4
	c0,0.8,0,1.6,0,2.4c0,2.3,2,4.2,4.3,4.2c0.1,0,0.2,0,0.2,0c4,0,8.1,0,12.1,0c0.6,0,1.8,0.4,1.7-0.6c-0.2-3.1,1.1-6.3-1.1-9.2
	c-5.4-7.4-4.6-17.6,1.9-24c6.3-6.4,16.4-7.2,23.6-1.8c7.4,5.5,10,15.4,5.4,23.4c-1.7,3.1-2.5,6.5-2.3,10c0,1.8,0.5,2.4,2.3,2.4
	c8.5-0.1,17.1,0,25.6,0c4.7,0,4.7,0,4.7-4.9c0-5.5,1.9-10.4,7.1-12.3c4.3-1.5,4.9-3.9,4.5-7.6c-0.2-2.1,0.9-3.1,3-3
	c3.3,0.1,6.7,0,10,0c1.1,0,2.2,0.2,2.2-1.5c0.4-0.9,0.8-1.8,1.2-2.7c4.4-11.2,9.4-22.2,14.9-32.9c0.8-1.5,1.9-2.5,3.5-1.7
	s1.4,2.4,0.6,3.9c-1,1.9-1.9,3.8-2.9,5.7c-4.3,8.8-8.3,17.8-11.7,27C115.2,122.5,113.8,123.6,115.7,123.9z M107.4,146
	c-0.9,1.7-1.1,3.7-1.7,5.5c-0.5,1.6-0.8,3.9-3.2,3.3c-2.6-0.6-1.9-2.7-1.4-4.5s1-3.5,1.4-5.3l2.3-7.1c-3.2,0-6.2-0.1-9.1,0
	c-4,0.2-6.5,2.4-7.5,6.5c-0.7,3.3-0.3,6.5-0.2,9.8c0,1.8,1.3,2.5,3.1,2.5h44.7c1.8,0,2.9-0.9,2.9-2.7c0-3.1,0.3-6.2-0.2-9.3
	c-0.3-3.9-3.6-6.8-7.4-6.8c-4.7-0.1-9.5-0.1-14.2-0.1c-7.3,0-7.3,0-9.3,7.1C107.4,145.3,107.4,145.7,107.4,146L107.4,146z M23,130.6
	c-0.2,7.5,6.4,14.9,13.5,15c6.9,0.1,13.8-6.9,13.9-14c0.1-7.6-5.9-14.1-13.4-14.2C29.5,117.3,23.3,123.2,23,130.6L23,130.6z
	 M83.2,20.5c0,4.6,0,9.2,0,13.8c0,5.5,3.6,9.8,9,10.1c4.9,0.3,9.9,0.1,14.6,0.1L83.2,20.5z M27.8,166.4c2.5-1.7,4.7-3.1,6.8-4.6
	c1.3-1.1,3.2-1.1,4.5,0c2.1,1.6,4.4,3,6.7,4.5v-19c-6.1,3.3-12,3.2-18.1,0.3L27.8,166.4z M111.7,133.2h2.4c3.9,0,7.7-0.1,11.6,0
	c2,0,1.4-1.3,1.5-2.3c0.1-1.3,0-2.2-1.7-2.1c-3.1,0.1-6.1,0-9.2,0C112.3,128.8,112.2,129,111.7,133.2z M107.9,128.8
	c-2.6,0-4.9,0-7.3,0c-1.3,0-1.2,0.9-1.1,1.6c0.2,1.1-0.8,3.1,0.6,3.2c2,0.2,4,0,5.9-0.6C107.3,132.5,107.2,130.4,107.9,128.8
	L107.9,128.8z"/>
<path class="st1" d="M115.7,123.9c-2-0.3-0.5-1.4-0.3-1.9c3.5-9.2,7.4-18.2,11.7-27c0.9-1.9,1.9-3.8,2.9-5.7c0.8-1.5,1.1-3-0.6-3.9
	s-2.7,0.1-3.5,1.7c-5.5,10.7-10.4,21.7-14.8,32.9c-0.4,0.9-0.8,1.8-1.2,2.7c-1-3.1-1.5-6.3-1.5-9.6c-0.5-8.1,0.4-16.3,2.7-24.1
	l4.7-11.1c6-10.8,14.9-19.7,25.7-25.7c7.2-4,7.4-4,8.6,4c0.9,6.6,0.9,13.3,0.1,19.9c-0.1,1.1-0.9,2-1.9,2.2c-2.9,1-5.8,2-8.7,3
	c-1.4,0.5-2.5,1.2-1.8,2.9s1.9,1.2,3.1,0.8c2-0.7,4-1.3,6-2c0.5-0.2,1-0.5,1.5-0.2c0.6,0.5,0.1,1.1,0,1.7
	c-3.8,13.2-11.8,24.9-22.8,33.1C122.4,119.9,119,121.8,115.7,123.9z"/>
<path class="st0" d="M50.4,4.8c-9.4,0-18.8,0-28.2,0c-1.8,0-3.6,0-3.5-2.4C18.6,0.1,20.3,0,22,0c18.8,0,37.6,0,56.5,0
	c5.1-0.1,10,1.9,13.6,5.5c4.7,4.7,9.3,9.4,14,14.1c1.2,1.2,2,2.5,0.6,3.9s-2.8,0.6-4-0.7c-4.3-4.4-8.6-8.6-12.9-13
	c-3.2-3.4-7.6-5.2-12.3-5.1C68.5,4.8,59.4,4.8,50.4,4.8z"/>
<path class="st0" d="M112.2,27.1c0,1.7-0.8,2.6-2.2,2.6c-1.1,0.1-2.2-0.7-2.3-1.9c0-0.1,0-0.1,0-0.2c-0.2-1.2,0.5-2.3,1.7-2.5
	c0.1,0,0.2,0,0.4,0c1.1-0.2,2.2,0.6,2.4,1.8C112.2,26.9,112.2,27,112.2,27.1z"/>
<path class="st1" d="M102.5,145c-0.5,1.8-0.9,3.5-1.4,5.3s-1.2,3.9,1.4,4.5c2.4,0.6,2.6-1.7,3.2-3.3c0.6-1.8,0.8-3.8,1.7-5.5
	c4.4,1.1,8.6,2.9,13.2,3.2c6.4,0.5,12.2-1.7,17.9-4.5c0.5,3.1,0.2,6.2,0.2,9.3c0,1.8-1.1,2.7-2.9,2.7H91c-1.8,0-3-0.8-3.1-2.5
	c0-3.3-0.4-6.5,0.2-9.8C93,144.4,97.8,144,102.5,145z"/>
<path class="st1" d="M34.5,30.4c4,0,7.9,0.1,11.9,0c1.6,0,2.4,0.3,2.3,2.2c-0.1,8-0.1,16,0,24c0,1.6-0.4,2.2-2.1,2.2
	c-7.9-0.1-15.8-0.1-23.7,0c-1.5,0-2.2-0.3-2.2-2c0.1-8.1,0.1-16.2,0-24.2c0-1.8,0.7-2,2.2-2C26.8,30.4,30.7,30.4,34.5,30.4z"/>
<path class="st0" d="M58,79.5h34.5c0.7,0,1.4,0,2.1,0c1.3,0,2.4,1,2.4,2.3c0.1,1.4-1.1,1.9-2.1,2.3c-0.6,0.1-1.2,0.2-1.8,0.1H22
	c-1.2,0-2.3,0.1-3.1-1c-0.7-1.1-0.4-2.6,0.7-3.3c0.3-0.2,0.6-0.3,1-0.4c0.9-0.1,1.8-0.1,2.6-0.1L58,79.5z"/>
<path class="st0" d="M57.8,96c-11.9,0-23.7,0-35.6,0c-1.8,0-3.6,0-3.6-2.4s1.9-2.4,3.6-2.4c23.7,0,47.5,0,71.2,0
	c1.8,0,3.6,0.3,3.6,2.5S95.2,96,93.4,96C81.5,96,69.7,96,57.8,96z"/>
<path class="st0" d="M47.3,72.5c-8.4,0-16.9,0-25.3,0c-1.7,0-3.4,0-3.5-2.2s1.7-2.5,3.5-2.5h50.8c1.5,0,2.9,0.1,3.3,1.9
	s-0.8,2.8-3.1,2.8C64.5,72.5,55.9,72.5,47.3,72.5z"/>
<path class="st0" d="M39.5,104.5c12.4,0.7,23.3,12.4,23.4,25c0,1.7-0.5,3.1-2.4,3.2s-2.2-1.3-2.3-2.9c-1-12.1-8.3-19.6-20.5-20.9
	c-1.1-0.1-2.4,0-2.8-1.4c-0.3-1.3-0.6-2.5,1.5-2.7C37.5,104.5,38.5,104.4,39.5,104.5z"/>
<path class="st0" d="M60.7,134.3c1.5,0.3,2.4,1.1,2.3,2.6c0,1.2-1,2.3-2.2,2.3c-0.1,0-0.3,0-0.4,0c-1.2,0-2.2-0.9-2.2-2.1
	c0-0.1,0-0.2,0-0.3C58.2,135.2,59.2,134.5,60.7,134.3z"/>
</svg>
