<?xml version="1.0" encoding="utf-8"?>
<!-- Generator: Adobe Illustrator 20.0.0, SVG Export Plug-In . SVG Version: 6.00 Build 0)  -->
<svg version="1.1" id="Layer_1" xmlns="http://www.w3.org/2000/svg" xmlns:xlink="http://www.w3.org/1999/xlink" x="0px" y="0px"
	 viewBox="0 0 480 480" style="enable-background:new 0 0 480 480;" xml:space="preserve">
<style type="text/css">
	.st0{fill:#FFFFFF;}
</style>
<title>22 (2)</title>
<path d="M122.6,91.5c0-11.6,0-22.8,0-33.9c0-6.6,1.2-7.9,7.6-7.9l27.7-0.1c0.2,0,0.5-0.2,1.2-0.5c0-3.3,0-6.7,0-10.2
	c0-9.6,0-19.3,0-28.9c0-6,1.4-7.3,7.4-7.3H448c7.2,0,8.3,1.2,8.3,8.5c0,124.8,0,249.7,0,374.5c0,7.2-1.3,8.5-8.3,8.5h-28.3
	c0,1.6,0,3.1,0,4.3c0,12,0,24,0,35.9c0,4.9-1.6,6.6-6.5,6.6c-8.5,0-16.9,0-25.4,0h-4.7c0,1.8,0,3.2,0,4.6c0,10.2,0,20.3,0,30.5
	c0,5.2-1.4,6.5-6.5,6.6c-0.8,0-1.5,0-2.3,0H94.9c-8,0-8.9-0.9-8.9-9c0-124.5,0-248.9,0-373.4c0-7.9,1.1-8.8,8.7-8.8L122.6,91.5z
	 M95.9,472.8h277.3V101.7H95.9V472.8z M446.3,12.7H169.1v37h241.8c8,0,8.7,0.7,8.7,8.7c0,106.9,0,213.8,0,320.5v4.8h26.5L446.3,12.7
	z M409.6,430.9V59.8H132.6v31.7h241.8c1.3,0,2.6-0.1,3.9,0c2.6,0,4.7,2.1,4.7,4.7c0,0,0,0,0,0.1c0.1,1.5,0.1,3.2,0.1,4.7
	c0,108.2,0,216.3,0,324.5v5.4H409.6z"/>
<path class="st0" d="M95.9,472.8V101.7h277.3v371.1H95.9z M133.5,162.3h202.1v-6.5H133.5V162.3z M133.5,423.6h202.1v-6.3H133.5
	V423.6z M335.6,214.6v-6.3h-202v6.3H335.6z M133.5,371.2h202.2c0-1.3,0.1-2.2,0.1-3.3c0-1.1-0.1-2-0.2-3.1h-202L133.5,371.2z
	 M133.5,266.7h202v-6.2h-202L133.5,266.7z M335.6,312.8H133.7v6.2h201.9V312.8z"/>
<path class="st0" d="M446.3,12.7v371h-26.5v-4.8c0-106.9,0-213.8,0-320.5c0-8-0.7-8.7-8.7-8.7H169.1v-37H446.3z"/>
<path class="st0" d="M409.6,430.9h-26.5v-5.4c0-108.2,0-216.3,0-324.5c0-1.5,0-3.2-0.1-4.7c0-2.6-2.1-4.7-4.7-4.7c0,0,0,0-0.1,0
	c-1.3-0.1-2.6,0-3.9,0H132.6V59.9h277.1V430.9z"/>
<path d="M133.5,162.3v-6.5h202.1v6.3L133.5,162.3z"/>
<path d="M133.5,423.6v-6.3h202.1v6.3H133.5z"/>
<path d="M335.6,214.6h-202v-6.3h202V214.6z"/>
<path d="M133.5,371.2v-6.3h202c0.1,1.1,0.2,2,0.2,3.1c0,1.1-0.1,2-0.1,3.3H133.5z"/>
<path d="M133.6,266.7v-6.2h202v6.2H133.6z"/>
<path d="M335.6,312.8v6.2H133.7v-6.2H335.6z"/>
</svg>
