<svg id="Layer_1" data-name="Layer 1" xmlns="http://www.w3.org/2000/svg" viewBox="0 0 480 480"><defs><style>.cls-1{fill:#fff;}</style></defs><title>22 (2)</title><path class="cls-1" d="M15.6,171.6h480v480H15.6Zm121.8,117H116c-5.89,0-6.67.79-6.67,6.78q0,143.23,0,286.45c0,6.23.67,6.92,6.81,6.92H330.57c.6,0,1.2,0,1.8,0,3.84-.08,4.93-1.16,4.95-5.08,0-7.8,0-15.6,0-23.4,0-1.07,0-2.14,0-3.51h3.57c6.5,0,13,0,19.5,0,3.73,0,5-1.33,5-5.08,0-9.2,0-18.4,0-27.6,0-1.06,0-2.12,0-3.37h21.68c5.47,0,6.44-1,6.44-6.46q0-143.68,0-287.35c0-5.58-.88-6.48-6.39-6.48h-216c-4.59,0-5.66,1.07-5.67,5.63q0,11.1,0,22.2c0,2.66,0,5.33,0,7.81-.56.25-.74.39-.92.4l-21.29.1c-5,0-5.89.93-5.9,6C137.4,271.12,137.4,279.69,137.4,288.6Z" transform="translate(-15.6 -171.6)"/><path d="M137.4,288.6c0-8.91,0-17.48,0-26.06,0-5.07.9-6,5.9-6l21.29-.1c.18,0,.36-.15.92-.4,0-2.49,0-5.15,0-7.81q0-11.1,0-22.2c0-4.56,1.08-5.63,5.67-5.63h216c5.5,0,6.39.9,6.39,6.48q0,143.68,0,287.35c0,5.48-1,6.45-6.44,6.46H365.42c0,1.25,0,2.31,0,3.37,0,9.2,0,18.4,0,27.6,0,3.75-1.29,5.06-5,5.08-6.5,0-13,0-19.5,0h-3.57c0,1.37,0,2.44,0,3.51,0,7.8,0,15.6,0,23.4,0,3.93-1.1,5-4.95,5.08-.6,0-1.2,0-1.8,0H116.1c-6.14,0-6.81-.68-6.81-6.92q0-143.23,0-286.45c0-6,.78-6.78,6.67-6.78ZM117,581.14H329.72V296.39H117Zm268.77-353H173.17v28.39H358.72c6.13,0,6.7.57,6.7,6.67q0,123,0,245.94v3.68H385.8ZM357.67,549V264.24H145.12V288.6H330.63c1,0,2-.07,3,0a3.61,3.61,0,0,1,3.64,3.64c.08,1.2.05,2.4.05,3.6q0,124.49,0,249V549Z" transform="translate(-15.6 -171.6)"/><path class="cls-1" d="M117,581.14V296.39H329.72V581.14Zm28.82-238.21H300.89V338H145.84Zm0,200.47H300.89v-4.89H145.84ZM300.92,383v-4.91h-155V383ZM145.86,503.24H301c0-.95.13-1.73.11-2.5s-.13-1.53-.2-2.33h-155Zm0-80.19h155v-4.78h-155Zm155,35.3H146v4.76H300.92Z" transform="translate(-15.6 -171.6)"/><path class="cls-1" d="M385.8,228.15V512.83H365.42v-3.68q0-123,0-245.94c0-6.11-.57-6.67-6.7-6.67H173.17V228.15Z" transform="translate(-15.6 -171.6)"/><path class="cls-1" d="M357.67,549H337.32v-4.16q0-124.49,0-249c0-1.2,0-2.4-.05-3.6a3.61,3.61,0,0,0-3.64-3.64c-1-.1-2,0-3,0H145.12V264.24H357.67Z" transform="translate(-15.6 -171.6)"/><path d="M145.84,342.93V338H300.89v4.89Z" transform="translate(-15.6 -171.6)"/><path d="M145.84,543.4v-4.89H300.89v4.89Z" transform="translate(-15.6 -171.6)"/><path d="M300.92,383h-155v-4.91h155Z" transform="translate(-15.6 -171.6)"/><path d="M145.86,503.24v-4.83h155c.07.8.19,1.56.2,2.33s-.06,1.55-.11,2.5Z" transform="translate(-15.6 -171.6)"/><path d="M145.87,423.05v-4.78h155v4.78Z" transform="translate(-15.6 -171.6)"/><path d="M300.92,458.36v4.76H146v-4.76Z" transform="translate(-15.6 -171.6)"/></svg>