<?xml version="1.0" encoding="utf-8"?>
<!-- Generator: Adobe Illustrator 20.0.0, SVG Export Plug-In . SVG Version: 6.00 Build 0)  -->
<svg version="1.1" id="Layer_1" xmlns="http://www.w3.org/2000/svg" xmlns:xlink="http://www.w3.org/1999/xlink" x="0px" y="0px"
	 viewBox="0 0 109.1 97.1" style="enable-background:new 0 0 109.1 97.1;" xml:space="preserve">
<style type="text/css">
	.st0{fill:none;}
</style>
<title>question</title>
<path d="M63.4,65.2c1.3-2.2,2.3-4.3,3.5-6.2c0.7-1.1,0.5-1.8-0.6-2.4c-2.3-1.3-4.2-3-5.7-5.2C56.9,46,58.1,39,63.4,34.6
	c4-3.3,8.9-5.3,14.1-5.8c7.3-0.8,14.4,0.1,20.7,4.3c2.5,1.5,4.5,3.7,5.8,6.4c1.9,4.3,1.6,8.4-1.5,12c-3.3,3.9-7.8,6.1-12.4,7.7
	c-7,2.5-14.4,3.9-21.7,5.2C66.7,64.7,65.2,64.9,63.4,65.2z"/>
<path d="M28.3,39c-1.9-1-2.9-3-2.7-5.1c0.2-3.1,0.1-6.2,0-9.4c0-1.4,0.5-1.7,1.8-1.7c4.3,0.1,8.6,0,12.9,0c1.4,0,2-0.4,1.8-1.9
	s0-2.6,0-3.9c0-1,0.3-1.5,1.4-1.4c0.8,0,1.5,0,2.3,0c0.4,0,0.9,0.1,1.2-0.3s-0.2-0.8-0.5-1.1c-1.6-1.8-2-4.3-1.1-6.5
	c0.7-2.5,2.9-4.2,5.5-4.4c2.6-0.4,5.3,0.9,6.5,3.3c1.3,2.3,1.2,5.2-0.4,7.3c-0.3,0.4-1,0.7-0.8,1.3s1,0.4,1.6,0.4
	c3.7,0.1,3.2-0.5,3.2,3.3s0,3.9,3.8,3.9c3.6,0,7.2,0,10.8,0c1.4,0,2,0.3,1.9,1.8s-1.2,1.5-2.1,1.4c-4.2-0.9-8.5-0.2-12.7-0.4
	c-1.3-0.1-1.9,0.5-1.8,1.8c0,0.4,0,0.9,0,1.3c0.1,1-0.4,1.3-1.3,1.3c-5.4,0-10.7,0-16.1,0c-1,0-1.3-0.5-1.3-1.4c-0.1-3-0.1-3-3.1-3
	s-5.9,0-8.9,0c-1.4,0-1.9,0.4-1.9,1.9C28.3,31.1,28.3,35,28.3,39z"/>
<path d="M44.2,64.1c-0.8-2.1-1.5-4.2-2.3-6.4c-0.2-0.5-0.4-1.3-1.1-1.2s-0.5,1-0.5,1.5c-0.1,2-0.1,2-2.1,1.9c-0.9-0.1-1.1,0.3-0.9,1
	c0.5,1.6-0.2,2-1.6,1.8c-0.6,0-1.6-0.4-1.8,0.4s0.8,1.1,1.5,1.5c1.6,0.6,3.2,1.4,4.7,2.4c-2.6-1.1-5.4-1.7-7.5-4
	c-2.5-2.8-4.9-5.6-7.6-8.1c-4.4-4-8.4-8.4-12.7-12.5c-2-1.9-3.9-4-5.9-5.9c-0.7-0.7-0.9-1.1-0.1-1.9c2-1.9,3.9-3.8,5.8-5.8
	c0.7-0.7,1.1-0.5,1.8,0c2.8,1.8,4.8,4.4,7.1,6.7c4.8,4.8,9.5,9.6,14.3,14.4c2,2,3.8,4.1,5.8,6.1S44,61.1,44.2,64.1L44.2,64.1z"/>
<path d="M25.6,60.4c1.8,1,2.9,2.9,2.7,5c-0.2,6,0,11.9-0.1,17.9c0,1.6,0.4,2.1,2,2.1c14.1-0.1,28.3-0.1,42.4,0c1.7,0,2.1-0.6,2-2.1
	c-0.1-5.2,0-10.4,0-15.6c0-0.8-0.1-1.5,0.9-1.8c1.4-0.4,1.7-0.3,1.7,1.2c0,6.3,0,12.6,0,18.9c0,1.2-0.2,1.6-1.6,1.6
	c-16.2-0.1-32.4,0-48.7,0c-0.8,0-1.5,0.1-1.5-1.1C25.7,77.8,25.6,69.2,25.6,60.4z"/>
<path d="M44.2,64.2c1.5,1.3,1.6,3.2,2.2,4.9c0.3,0.8-0.5,0.7-1.1,0.5c-1.3-0.6-2.6-1.2-4-1.9c0.9-0.1,1.6-0.5,2.2-1.1
	C44.2,65.8,44.7,65.2,44.2,64.2L44.2,64.2z"/>
<path class="st0" d="M81.6,47.3c-0.8-0.3-2,0.5-2.5-0.6c-0.3-1.1-0.1-2.3,0.6-3.2c0.6-0.8,1.4-1.3,2.3-1.7c0.4-0.2,0.9-0.5,0.8-1.1
	c-0.1-0.4-0.4-0.8-0.9-0.9c-0.6-0.1-0.9,0.3-1.2,0.9c-1,1.8-3.3,2.4-5,1.4c-0.1,0-0.1-0.1-0.2-0.1c-0.5-0.4-0.7-1-0.5-1.6
	c0.4-2.7,2.6-4.9,5.3-5.4c3.1-0.6,6.4,0.5,7.7,2.8c1.4,2.1,1,4.9-1.1,6.4c-0.2,0.1-0.4,0.3-0.6,0.4c-0.9,0.4-1.7,1.1-2.1,2
	C83.7,47.9,82.5,47,81.6,47.3z"/>
<path class="st0" d="M81.7,53.7c-3,0-3,0-3-3.1c0-2.4,0-2.4,2.4-2.4h0.8c3.3,0,3.4,0,3.3,3.2c0,1.9-0.4,2.2-2.2,2.3H81.7z"/>
<path class="st0" d="M55.3,10c0.1,2.1-1.6,3.9-3.8,4c-2.1,0.1-3.9-1.6-4-3.8c0-0.1,0-0.2,0-0.4c-0.1-2.1,1.6-3.9,3.8-4
	s3.9,1.6,4,3.8C55.3,9.8,55.3,9.9,55.3,10z"/>
<path class="st0" d="M13,29.9c1.1,0.7,2.1,1.6,2.8,2.7c0.5,0.8-0.4,1.2-0.9,1.7c-1.1,1.2-2.3,2.3-3.4,3.4c-0.7,0.7-1.2,0.7-1.9,0
	c-0.2-0.2-0.4-0.4-0.6-0.6c-1.5-1.5-1.6-1.6,0-3c1.1-1,1.6-2.4,2.6-3.4C12,30.3,12.5,30,13,29.9z"/>
</svg>
