<svg id="Layer_1" data-name="Layer 1" xmlns="http://www.w3.org/2000/svg" viewBox="0 0 109.06 97.13"><defs><style>.cls-1{fill:#fff;}</style></defs><title>question</title><path class="cls-1" d="M309.82,345.32q-26.61,0-53.21,0c-1.1,0-1.32-.22-1.32-1.32q.06-47.24,0-94.49c0-1.1.22-1.32,1.32-1.32q53.21.06,106.42,0c1.1,0,1.32.22,1.32,1.32q-.06,47.24,0,94.49c0,1.1-.22,1.32-1.32,1.32Q336.43,345.29,309.82,345.32Z" transform="translate(-255.29 -248.22)"/><path d="M318.73,313.43c1.26-2.23,2.33-4.28,3.54-6.22.72-1.15.52-1.79-.63-2.4a16.54,16.54,0,0,1-5.66-5.18c-3.81-5.37-2.59-12.41,2.73-16.86a25.83,25.83,0,0,1,14.08-5.83c7.33-.8,14.37.13,20.68,4.33a15.3,15.3,0,0,1,5.76,6.37c1.94,4.29,1.62,8.35-1.5,12-3.32,3.91-7.75,6.06-12.43,7.74-7,2.54-14.39,3.86-21.73,5.19C322,312.88,320.51,313.13,318.73,313.43Z" transform="translate(-255.29 -248.22)"/><path d="M283.55,287.17a5.12,5.12,0,0,1-2.68-5.14c.21-3.1.11-6.23,0-9.35,0-1.37.48-1.74,1.78-1.72,4.3.06,8.6,0,12.9.05,1.42,0,1.95-.44,1.84-1.85s0-2.58,0-3.87c0-1,.32-1.51,1.39-1.44a21.81,21.81,0,0,0,2.26,0c.41,0,.92.15,1.16-.33s-.22-.78-.49-1.09a6.46,6.46,0,0,1-1.15-6.52,6,6,0,0,1,5.45-4.35,6.14,6.14,0,0,1,6.48,3.27,6.57,6.57,0,0,1-.43,7.3c-.29.42-1,.74-.76,1.32s1,.39,1.58.4c3.67.07,3.22-.5,3.24,3.28s0,3.85,3.83,3.85c3.6,0,7.2.05,10.8,0,1.37,0,2,.32,1.86,1.8s-1.2,1.55-2.07,1.36c-4.21-.9-8.46-.19-12.68-.43-1.29-.07-1.92.46-1.76,1.8,0,.42,0,.86,0,1.29.07,1-.38,1.32-1.34,1.32q-8.06,0-16.12,0c-1,0-1.26-.46-1.28-1.38-.1-3-.12-3-3.11-3s-5.91,0-8.87,0c-1.35,0-1.91.44-1.88,1.88C283.6,279.36,283.55,283.17,283.55,287.17Z" transform="translate(-255.29 -248.22)"/><path d="M299.52,312.36c-.77-2.12-1.54-4.24-2.33-6.35-.2-.55-.43-1.31-1.1-1.21s-.5.95-.53,1.49c-.09,2-.08,2-2.11,1.88-.85-.07-1.13.29-.89,1,.54,1.63-.21,2-1.65,1.84-.62,0-1.65-.44-1.82.39s.84,1.11,1.5,1.45a25.06,25.06,0,0,1,4.66,2.39c-2.58-1.14-5.43-1.7-7.47-4-2.47-2.75-4.91-5.61-7.57-8.08-4.38-4.05-8.42-8.42-12.74-12.52-2-1.92-3.93-4-5.93-5.92-.71-.69-.92-1.15-.09-1.94,2-1.88,3.91-3.84,5.8-5.82.69-.72,1.06-.55,1.84,0,2.78,1.84,4.81,4.42,7.13,6.72,4.8,4.78,9.54,9.61,14.33,14.4,2,2,3.78,4.15,5.82,6.11s2.89,5.15,3.11,8.2Z" transform="translate(-255.29 -248.22)"/><path d="M280.92,308.62a5.1,5.1,0,0,1,2.68,4.95c-.16,6,0,11.92-.08,17.88,0,1.57.35,2.14,2,2.13q21.19-.1,42.38,0c1.69,0,2.08-.56,2.05-2.13-.08-5.21,0-10.42,0-15.63,0-.75-.1-1.49.91-1.8,1.4-.43,1.7-.27,1.71,1.2,0,6.28,0,12.57,0,18.85,0,1.18-.18,1.62-1.58,1.61-16.22-.07-32.44,0-48.66,0-.82,0-1.46.12-1.46-1.06C280.94,326,280.92,317.43,280.92,308.62Z" transform="translate(-255.29 -248.22)"/><path d="M299.48,312.4c1.5,1.28,1.62,3.21,2.17,4.9.27.81-.53.72-1.07.49-1.32-.57-2.64-1.17-4-1.89a3.27,3.27,0,0,0,2.19-1.14c.68-.71,1.22-1.37.73-2.4Z" transform="translate(-255.29 -248.22)"/><path class="cls-1" d="M336.92,295.54c-.82-.3-2,.51-2.46-.59a3.66,3.66,0,0,1,.62-3.2,5.59,5.59,0,0,1,2.31-1.68c.41-.24.92-.47.75-1.08a1,1,0,0,0-.86-.86c-.63-.06-.94.33-1.18.88a3.7,3.7,0,0,1-5.23,1.3,1.5,1.5,0,0,1-.51-1.58,6.57,6.57,0,0,1,5.29-5.4c3.15-.63,6.35.51,7.73,2.75a4.56,4.56,0,0,1-1.75,6.73,4.09,4.09,0,0,0-2.14,2C339,296.08,337.78,295.24,336.92,295.54Z" transform="translate(-255.29 -248.22)"/><path class="cls-1" d="M337,301.94c-3,0-3,0-3-3.08,0-2.39,0-2.39,2.41-2.39h.8c3.34,0,3.36,0,3.31,3.2,0,1.91-.36,2.24-2.23,2.27Z" transform="translate(-255.29 -248.22)"/><path class="cls-1" d="M310.62,258.22a3.87,3.87,0,1,1-7.73-.16,3.87,3.87,0,1,1,7.73.16Z" transform="translate(-255.29 -248.22)"/><path class="cls-1" d="M268.25,278.15a8.28,8.28,0,0,1,2.81,2.68c.55.76-.44,1.19-.87,1.66-1.1,1.18-2.28,2.27-3.39,3.44-.66.7-1.24.74-1.87,0-.17-.2-.38-.38-.56-.57-1.51-1.52-1.57-1.6,0-3,1.12-1,1.6-2.4,2.64-3.4A2.18,2.18,0,0,1,268.25,278.15Z" transform="translate(-255.29 -248.22)"/></svg>